<?xml version="1.0" standalone="no"?><!DOCTYPE svg PUBLIC "-//W3C//DTD SVG 1.1//EN" "http://www.w3.org/Graphics/SVG/1.1/DTD/svg11.dtd">
<svg t="1649461467398" class="icon" viewBox="0 0 1024 1024" version="1.1"
    xmlns="http://www.w3.org/2000/svg" p-id="2491" width="32" height="32"
    xmlns:xlink="http://www.w3.org/1999/xlink">
    <defs>
        <style type="text/css">@font-face { font-family: feedback-iconfont; src: url("//at.alicdn.com/t/font_1031158_u69w8yhxdu.woff2?t=1630033759944") format("woff2"), url("//at.alicdn.com/t/font_1031158_u69w8yhxdu.woff?t=1630033759944") format("woff"), url("//at.alicdn.com/t/font_1031158_u69w8yhxdu.ttf?t=1630033759944") format("truetype"); }
        </style>
    </defs>
    <path d="M935.392 371.712l-33.144-31.736a118.776 118.776 0 0 0-147.312-13.512l-102.6 67.336 28.968-74.4A118.76 118.76 0 0 0 640.128 180l-40.08-28.928a118.768 118.768 0 0 0-139.272 0.2l-37.136 26.96a118.76 118.76 0 0 0-39.536 142.544l32.336 76.128-107.328-70.44a118.776 118.776 0 0 0-147.312 13.512l-33.144 31.736a118.776 118.776 0 0 0-25.008 137.016l21.32 44.592a118.768 118.768 0 0 0 129.84 65.352l120.52-23.448-121.456 78.616a118.76 118.76 0 0 0-47.104 140.224l15.656 43.136a118.776 118.776 0 0 0 115.256 78.192l49.4-1.504a118.768 118.768 0 0 0 112.2-92.408l30.944-136.24c1.224 0.04 2.424 0.184 3.656 0.184l30.904 136.048a118.768 118.768 0 0 0 112.2 92.408l49.4 1.504a118.768 118.768 0 0 0 115.256-78.192l15.656-43.136a118.76 118.76 0 0 0-47.104-140.224l-121.456-78.616 120.52 23.448a118.776 118.776 0 0 0 129.84-65.352l21.32-44.592a118.8 118.8 0 0 0-25.024-137.008z" fill="#E6E7E8" p-id="2492"></path>
    <path d="M903.392 339.712l-33.144-31.736a118.776 118.776 0 0 0-147.312-13.512l-102.6 67.336 28.968-74.4A118.76 118.76 0 0 0 608.128 148l-40.08-28.928a118.768 118.768 0 0 0-139.272 0.2l-37.136 26.96a118.76 118.76 0 0 0-39.536 142.544l32.336 76.128-107.328-70.44a118.776 118.776 0 0 0-147.312 13.512l-33.144 31.736a118.776 118.776 0 0 0-25.016 137.016l21.32 44.592a118.768 118.768 0 0 0 129.84 65.352l120.52-23.448-121.456 78.616a118.76 118.76 0 0 0-47.104 140.224l15.656 43.136a118.776 118.776 0 0 0 115.256 78.192l49.4-1.504a118.768 118.768 0 0 0 112.2-92.408l30.944-136.24c1.224 0.04 2.424 0.184 3.656 0.184l30.904 136.048a118.768 118.768 0 0 0 112.2 92.408l49.4 1.504a118.768 118.768 0 0 0 115.256-78.192l15.656-43.136a118.76 118.76 0 0 0-47.104-140.224l-121.456-78.616 120.52 23.448a118.776 118.776 0 0 0 129.84-65.352l21.32-44.592a118.776 118.776 0 0 0-25.016-137.008z" fill="#FFFFFF" p-id="2493"></path>
    <path d="M903.392 363.712l-33.144-31.736a118.776 118.776 0 0 0-147.312-13.512l-102.6 67.336 28.968-74.4A118.76 118.76 0 0 0 608.128 172l-40.08-28.928a118.768 118.768 0 0 0-139.272 0.2l-37.136 26.96a118.76 118.76 0 0 0-39.536 142.544l32.336 76.128-107.328-70.44a118.776 118.776 0 0 0-147.312 13.512l-33.144 31.736a118.776 118.776 0 0 0-25.016 137.016l21.32 44.592a118.768 118.768 0 0 0 129.84 65.352l120.52-23.448-121.456 78.616a118.76 118.76 0 0 0-47.104 140.224l15.656 43.136a118.776 118.776 0 0 0 115.256 78.192l49.4-1.504a118.768 118.768 0 0 0 112.2-92.408l30.944-136.24c1.224 0.04 2.424 0.184 3.656 0.184l30.904 136.048a118.768 118.768 0 0 0 112.2 92.408l49.4 1.504a118.768 118.768 0 0 0 115.256-78.192l15.656-43.136a118.76 118.76 0 0 0-47.104-140.224l-121.456-78.616 120.52 23.448a118.776 118.776 0 0 0 129.84-65.352l21.32-44.592a118.776 118.776 0 0 0-25.016-137.008z" fill="#FA759E" p-id="2494"></path>
    <!-- <path d="M698.056 911.44c-1.312 0-2.608-0.016-3.92-0.056l-49.4-1.504a126.792 126.792 0 0 1-119.768-98.632 8.008 8.008 0 0 1 15.608-3.544 110.736 110.736 0 0 0 104.64 86.176l49.4 1.504c47.936 1.632 91.136-27.832 107.496-72.912l15.664-43.144a110.256 110.256 0 0 0-43.928-130.784l-121.464-78.616a8.024 8.024 0 0 1-3.08-9.712 7.96 7.96 0 0 1 8.952-4.856l120.52 23.456a110.8 110.8 0 0 0 121.088-60.952l21.32-44.592a110.576 110.576 0 0 0-23.328-127.784l-33.152-31.736a110.24 110.24 0 0 0-137.384-12.6L624.72 368.488a8 8 0 0 1-11.848-9.6l28.968-74.408a110.784 110.784 0 0 0-38.4-130.008l-40.08-28.92a110.536 110.536 0 0 0-129.896 0.184l-37.136 26.96a110.256 110.256 0 0 0-36.872 132.944l32.336 76.128a8 8 0 0 1-11.752 9.808L272.72 301.152a110.232 110.232 0 0 0-137.384 12.6l-33.152 31.736a110.568 110.568 0 0 0-23.32 127.784l21.32 44.592a110.8 110.8 0 0 0 121.088 60.952l120.512-23.456a7.984 7.984 0 0 1 5.872 14.568l-121.456 78.616a110.24 110.24 0 0 0-43.936 130.784l15.656 43.144c16.36 45.072 59.512 74.56 107.496 72.912l49.4-1.504a110.768 110.768 0 0 0 104.648-86.176l30.944-136.232c0.848-3.736 4.28-6.632 8.056-6.216l1.872 0.104c0.52 0.032 1.048 0.08 1.576 0.08a8 8 0 0 1 7.752 6.224l6.704 29.48a8.008 8.008 0 0 1-15.608 3.544l-0.744-3.272-24.952 109.84a126.776 126.776 0 0 1-119.76 98.632l-49.4 1.504a126.384 126.384 0 0 1-123.016-83.464l-15.656-43.144a126.168 126.168 0 0 1 50.28-149.672l86.752-56.152-79.936 15.552a126.8 126.8 0 0 1-138.584-69.752l-21.32-44.592a126.552 126.552 0 0 1 26.688-146.24l33.152-31.744c42.912-41.088 107.568-47 157.232-14.416l85.248 55.944-22.008-51.824c-23.224-54.672-5.872-117.24 42.2-152.152l37.136-26.96a126.52 126.52 0 0 1 148.656-0.2l40.08 28.92a126.768 126.768 0 0 1 43.944 148.792l-19.88 51.08 81.672-53.6a126.176 126.176 0 0 1 157.224 14.416l33.152 31.736a126.544 126.544 0 0 1 26.704 146.248l-21.32 44.592a126.744 126.744 0 0 1-138.584 69.752l-79.936-15.552 86.752 56.152a126.192 126.192 0 0 1 50.288 149.672l-15.664 43.144a126.528 126.528 0 0 1-119.104 83.512z" fill="#3A2C60" p-id="2495"></path> -->
    <!-- <path d="M526.424 789.552c-3.648 0-6.952-2.512-7.8-6.224l-11.64-51.256a8 8 0 1 1 15.6-3.544l11.64 51.256a8.008 8.008 0 0 1-7.8 9.768z" fill="#3A2C60" p-id="2496"></path> -->
    <path d="M752.896 435.832a7.992 7.992 0 0 0-9.984-5.312L552.536 488.72a56.688 56.688 0 0 0-2-4.752l106.936-79.688a8 8 0 0 0-9.56-12.824L541.632 470.64a56.16 56.16 0 0 0-7.12-6.672l38.768-126.056a8 8 0 0 0-15.296-4.704l-37.72 122.648a55.344 55.344 0 0 0-12.232-3.192V258.832a8 8 0 1 0-16 0v193.832a55.232 55.232 0 0 0-12.232 3.192L442.08 333.208a8 8 0 0 0-15.296 4.704l38.768 126.056a56.2 56.2 0 0 0-7.12 6.672L352.16 391.448a8 8 0 1 0-9.56 12.824l106.936 79.688a54.136 54.136 0 0 0-2 4.752l-190.376-58.2a8 8 0 0 0-4.68 15.296l191.744 58.616c-0.064 1.008-0.144 2.008-0.152 3.032l-135.52 7.888a8 8 0 1 0 0.936 15.968l136.056-7.92-110.952 87.016a8 8 0 1 0 9.88 12.592L452.8 538.032c1.792 2.808 3.824 5.44 6.072 7.88L343.048 712.592a8 8 0 0 0 13.136 9.128l115.128-165.672c2.968 1.776 6.104 3.28 9.384 4.488l-41.04 128.624a8.008 8.008 0 0 0 7.624 10.432 8 8 0 0 0 7.616-5.568l41.536-130.168c1.192 0.08 2.376 0.184 3.592 0.184 1.208 0 2.392-0.104 3.584-0.184l41.528 130.168a8 8 0 1 0 15.248-4.864l-41.04-128.624a55.28 55.28 0 0 0 9.384-4.488l115.128 165.672a7.984 7.984 0 0 0 11.128 2.008 8 8 0 0 0 2.008-11.136L541.176 545.912c2.248-2.44 4.288-5.072 6.072-7.88l108.328 84.968a8 8 0 0 0 9.872-12.592L554.528 523.4l136.056 7.92 0.472 0.016a8 8 0 0 0 0.456-15.984L556 507.464c-0.008-1.024-0.088-2.024-0.152-3.032l191.744-58.616a7.992 7.992 0 0 0 5.304-9.984z" fill="#FFFFFF" p-id="2497"></path>
    <path d="M293.144 525.48m-20 0a20 20 0 1 0 40 0 20 20 0 1 0-40 0Z" fill="#FFD7E5" p-id="2498"></path>
    <path d="M239.496 433.488m-19.992 0a19.992 19.992 0 1 0 39.984 0 19.992 19.992 0 1 0-39.984 0Z" fill="#FFD7E5" p-id="2499"></path>
    <path d="M335.416 387.216m-20 0a20 20 0 1 0 40 0 20 20 0 1 0-40 0Z" fill="#FFD7E5" p-id="2500"></path>
    <path d="M760.544 433.488m-19.992 0a19.992 19.992 0 1 0 39.984 0 19.992 19.992 0 1 0-39.984 0Z" fill="#FFD7E5" p-id="2501"></path>
    <path d="M664.632 387.216m-20 0a20 20 0 1 0 40 0 20 20 0 1 0-40 0Z" fill="#FFD7E5" p-id="2502"></path>
    <path d="M706.904 525.48m-20 0a20 20 0 1 0 40 0 20 20 0 1 0-40 0Z" fill="#FFD7E5" p-id="2503"></path>
    <path d="M500.024 242.832m-20 0a20 20 0 1 0 40 0 20 20 0 1 0-40 0Z" fill="#FFD7E5" p-id="2504"></path>
    <path d="M427.736 321.024m-19.992 0a19.992 19.992 0 1 0 39.984 0 19.992 19.992 0 1 0-39.984 0Z" fill="#FFD7E5" p-id="2505"></path>
    <path d="M572.312 321.024m-19.992 0a19.992 19.992 0 1 0 39.984 0 19.992 19.992 0 1 0-39.984 0Z" fill="#FFD7E5" p-id="2506"></path>
    <path d="M659.56 730.296m-20 0a20 20 0 1 0 40 0 20 20 0 1 0-40 0Z" fill="#FFD7E5" p-id="2507"></path>
    <path d="M674.304 624.832m-20 0a20 20 0 1 0 40 0 20 20 0 1 0-40 0Z" fill="#FFD7E5" p-id="2508"></path>
    <path d="M555.576 707.336m-20 0a20 20 0 1 0 40 0 20 20 0 1 0-40 0Z" fill="#FFD7E5" p-id="2509"></path>
    <path d="M340.488 730.296m-20 0a20 20 0 1 0 40 0 20 20 0 1 0-40 0Z" fill="#FFD7E5" p-id="2510"></path>
    <path d="M325.744 624.832m-20 0a20 20 0 1 0 40 0 20 20 0 1 0-40 0Z" fill="#FFD7E5" p-id="2511"></path>
    <path d="M444.472 707.336m-20 0a20 20 0 1 0 40 0 20 20 0 1 0-40 0Z" fill="#FFD7E5" p-id="2512"></path>
</svg>